<?xml version="1.0" encoding="utf-8"?>
<!-- Generator: Adobe Illustrator 27.5.0, SVG Export Plug-In . SVG Version: 6.00 Build 0)  -->
<svg version="1.1" id="Camada_1" xmlns="http://www.w3.org/2000/svg" xmlns:xlink="http://www.w3.org/1999/xlink" x="0px" y="0px"
	 viewBox="0 0 1920 1080" style="enable-background:new 0 0 1920 1080;" xml:space="preserve">
<style type="text/css">
	.st0{fill:#0D6399;}
</style>
<path class="st0" d="M1911.7,776.9c-1.1-2.9-2-5.2-3-7.5c-44.9-103.8-107.8-191-186.9-259.3c-65.4-56.4-138.5-95.4-217.2-115.7
	c-34.1-8.8-62.4-16.9-89.2-32.7c-3-1.8-6.4-3.2-9.7-4.6c-1.2-0.5-2.4-1-3.6-1.6c-91.9-40.6-189.7-59.2-290.6-55.2
	c-39,1.5-72.4,5.2-102.1,11.1c-55.7,11.1-112.1,23.8-166.6,36.1c-22.6,5.1-46,10.3-69,15.4c-2.5,0.6-5,1-7.7,1.4
	c-1.3,0.2-2.7,0.5-4.1,0.7l-1.8,0.3v-1.8c0-2.1,0-4.1,0-6.1c0-4.4-0.1-8.6,0.1-12.7c0.2-3.6-0.9-4.8-4.8-5.7
	c-33.1-7.5-66.8-15.2-99.3-22.7c-23.5-5.4-46.9-10.7-70.4-16.1c-1.7-0.4-3.6-0.3-5.1,0.2c-16.4,5.3-32.8,10.7-49.3,16.1
	c-23.2,7.6-47.3,15.5-71,23.1c-4.9,1.6-6.4,3.6-6.3,8.5c0.3,13.2,0.2,26.5,0.2,39.5c0,4,0,8.1,0,12.1c0,1.9-0.1,3.8-0.3,5.8
	c-0.1,1-0.1,1.9-0.2,3l-0.1,1.6l-1.6-0.2c-3.6-0.4-7-0.8-10.4-1.2c-7.9-0.9-15.4-1.8-22.9-2.1c-5.9-0.3-13.5-0.3-20,1.8
	c-73.1,24-138.9,45.7-204.4,68c-68.3,23.4-120.2,67.7-154.1,131.9C18.7,649.5,7.8,694.7,7,746.6c0,3,0.4,4.8,1.4,5.8
	c1,1,2.8,1.4,5.5,1.3c14.1-0.5,28-0.3,42.3-0.1c2.3,0,3.7-0.3,4.4-1c0.7-0.7,1-2.3,0.9-4.8c-0.1-3.1-0.3-6.3-0.4-9.4
	c-0.6-13.1-1.3-26.7,0.1-39.8C70.3,609.4,117,545.3,200,508.3c3.1-1.4,7.2-2,11.2-1.6c23.1,2.1,45.7,4.3,70.8,6.9
	c13.3,1.3,26.4,2.7,40.3,4.2c6.3,0.7,12.6,1.3,19.2,2l3.8,0.4l-3.1,2.3c-0.9,0.7-1.7,1.3-2.3,1.7c-1.1,0.8-1.9,1.4-2.7,2
	c-25.4,15.9-47.6,35.2-66,57.3c-38.1,45.9-59.7,99.7-66,164.6c-0.2,2.3,0,3.8,0.7,4.6c0.7,0.8,2.2,1.1,4.6,1.1
	c16.2-0.3,31.1-0.3,45.4,0c2.6,0.1,4.3-0.3,5-1.1c0.8-0.9,1.1-2.6,0.9-5.5c-2-33.4,1.5-62.9,10.7-89.9c12-35.2,29.4-64.5,51.6-86.8
	c23.5-23.7,53.1-40.5,88.1-49.8c8.8-2.4,17.8-3.5,27.3-4.7c4.3-0.6,8.8-1.1,13.2-1.8l1.7-0.3v65.8c0,63.1,0,128.4-0.1,192.6
	c0,3.6,0.5,5.6,1.6,6.7c1.1,1.1,3.1,1.6,6.4,1.6h0.1c48.3-0.1,96.6-0.2,144.5-0.2c49,0,97.7,0.1,145.6,0.2c3.4,0,5.4-0.5,6.5-1.5
	c1.1-1.1,1.5-3.1,1.5-6.7c-0.2-65.5-0.2-132.1-0.1-196.5v-63.4l50.7-8.5c36.7-6.2,73.2-12.3,109.7-18.5c25.1-4.2,50.2-8.4,75.3-12.7
	c61.4-10.3,124.9-20.9,187.2-32c60.9-10.8,110.6-12.5,156.6-5.2c3.5,0.5,8.2,2.2,10.9,5.3c3.2,3.6,6.5,7.2,9.6,10.7
	c11,12.1,22.3,24.6,32,38c55.8,77.3,87.4,169.6,96.6,282l0.1,0.8c0.3,4,0.5,6.5,1.4,7.3c0.9,0.8,3.6,0.8,7.9,0.8H1913
	C1912.5,779,1912.1,777.9,1911.7,776.9z M410.4,408.6l43.4,4.8v34.9l-43.4-4.1V408.6z M209.9,501.3c-34.3,10.7-65.4,31-92.4,60.4
	c-44,47.9-64.3,107.3-60.3,176.8c0.1,1.1,0.2,2.2,0.3,3.4c0.1,1.2,0.2,2.4,0.3,3.6c0,0.7-0.1,1.3-0.2,2c-0.1,0.3-0.1,0.7-0.2,1
	l-0.2,1.3H11.5v-1.5c0-2.8-0.1-5.7-0.1-8.5c-0.1-6.1-0.3-12.3,0.2-18.5c5.5-62,27-115.8,63.8-159.8c31.7-37.9,69.9-64.7,113.6-79.8
	c49.3-17,99.6-33.6,148.3-49.7c20.5-6.8,41.7-13.8,62.5-20.7c0.8-0.3,1.6-0.5,2.6-0.8l3.7-1.2v34.9l-1.1,0.3
	c-6.4,1.9-12.9,3.8-19.3,5.7c-14.1,4.1-28.7,8.4-43.1,12.6c-13.9,4-28.1,8-41.8,11.9C270.9,483.2,240,491.9,209.9,501.3z
	 M453.8,511.2l-1.4,0.1c-60.6,3.1-110,28.7-147,76.2c-34.4,44.2-49.8,96.8-47.1,160.9l0.1,1.6h-51.6l0.4-1.8
	c1.3-6.2,2.5-12.5,3.6-18.5c2.6-13.7,5.1-26.6,8.5-39.7c12.8-48.4,37-89.8,71.8-123.2c16.7-16,36.9-29.6,54.6-41.7
	c6.7-4.5,15-6.7,23-8.9c1.7-0.5,3.5-0.9,5.1-1.4c18.3-5.2,36.9-10.2,55-15c5.5-1.5,11-2.9,16.6-4.4c1.4-0.4,2.7-0.6,4.3-0.8
	c0.8-0.1,1.6-0.2,2.4-0.4l1.7-0.3V511.2z M211.2,503.9l13.6-3.6l21.4-6.2c15-4.4,30-8.7,45-13.1c9.6-2.8,19.3-5.6,28.9-8.5
	c26.1-7.7,53.1-15.7,79.9-22.7c8.3-2.2,17.3-1.4,26.1-0.7c1.8,0.1,3.5,0.3,5.2,0.4c22.5,1.6,23.2,2.3,23.2,25.1
	c0,14.1-0.5,14.8-13.4,18.3l-0.8,0.2c-10.3,2.8-20.8,5.8-31,8.7c-16.2,4.6-32.9,9.3-49.5,13.6c-3.3,0.8-6.7,1.1-10.2,1.1
	c-3.6,0-7.3-0.3-11-0.7c-28.5-2.7-57.5-5.7-85.5-8.5c-8-0.8-16.1-1.7-24.1-2.5 M585.4,303.4l1.8,0.4c7.3,1.7,14.6,3.3,21.8,4.9
	c15.9,3.6,32.4,7.3,48.5,11c9.4,2.2,18.8,4.3,28.2,6.5c20.6,4.8,42,9.8,63,14.3c6.3,1.4,8.6,4.2,8.4,10.8l0,0.8
	c-0.3,13.8-0.9,14.4-15.1,17.6c-50.5,11.2-101,22.4-151.6,33.6c-0.6,0.1-1.2,0.2-2,0.2c-0.4,0-0.9,0-1.5,0.1l-1.6,0.1V303.4z
	 M1440.6,377.8l7,3.5l-13.3-1.5c-6.9-0.4-13.8-2-20.4-2.5c-15-1.1-29.2-2.2-43.6-2.1c-19.6,0.2-39.6,1.4-59,2.6
	c-9.5,0.6-19.3,1.1-29,1.6c-3.2,0.2-6.8,0.2-9.7-1.2c-69.6-34.1-144.5-41.9-228.9-23.7c-85.9,18.5-173.4,36.8-258,54.6
	c-39,8.2-78,16.4-117,24.6c-23.8,5-47.7,10.1-71.5,15.1c-16.1,3.4-32.3,6.9-48.4,10.3c-1.5,0.3-3,0.5-4.7,0.8
	c-0.9,0.1-1.8,0.3-2.8,0.4l-1.7,0.3v-1.8c0-3.1,0-6.2,0-9.2c0-9.2-0.1-17.8,0.3-26.6c0.1-2.8,4.4-5.9,7.1-6.5
	c44.3-10.1,88-19.7,132.6-29.5c29.7-6.5,59.8-13.3,89-19.8c78.7-17.5,160.1-35.7,240.4-52.4c29.5-6.1,62.1-9.7,102.5-11.3
	c105.3-4.1,206.5,16.1,301,60.1c5.3,2.4,10.5,5.1,15.6,7.7c1.6,0.8,3.2,1.6,4.7,2.4 M1268.2,380.8l-66,13.4
	c-7.2,1.5-14.3,2.9-21.4,4.4c-22.6,4.6-45.9,9.4-68.9,13.8c-1.7,0.3-3.4,0.5-5.1,0.5c-3,0-5.7-0.5-7.8-1.6
	c-21.5-10.8-43.3-22.1-64.3-33.1c-6.1-3.2-12.2-6.3-18.3-9.5c-0.5-0.3-1-0.6-1.5-0.9c-0.3-0.2-0.6-0.4-0.9-0.6l-2.7-1.7l3-1
	c38.2-12.8,85.7-18.3,133.8-15.6c48.1,2.7,89.6,13.3,116.8,29.8L1268.2,380.8z M581.3,776.3H457.7l0-79.8c0-112.2,0-228.3-0.2-342.4
	c0-7.7,2.4-11,9.6-13.2c25.8-8,51.9-16.6,77.2-24.9c9.4-3.1,18.8-6.2,28.1-9.2c1.5-0.5,2.9-0.9,4.6-1.4c0.8-0.2,1.7-0.5,2.7-0.8
	l1.9-0.6v101.3l-1.2,0.3c-3.4,0.8-6.9,1.6-10.3,2.4c-8,1.9-16.2,3.8-24.4,5.2c-7.9,1.3-10.3,4.2-9.8,12c0.6,9.4,0.5,18.7,0.3,28.6
	c0,3.7-0.1,7.4-0.1,11.3l45-9.2V776.3z M756.7,776.4H585.8V454.6l1.2-0.3c3.1-0.7,6.2-1.3,9.3-2c9.3-2,19-4.1,28.6-6.1
	c2.2-0.4,4.7-0.3,6.9,0.3c39.9,12,80.4,24.2,119.5,36.1l2.2,0.7c0.6,0.2,1.2,0.5,1.7,0.8c0.2,0.1,0.5,0.2,0.7,0.4l0.8,0.4V776.4z
	 M760.3,482.1c-31.1-9.3-62.7-19-93.3-28.3l-15.6-4.8c-1.7-0.5-3.4-1.1-5-1.6l-11.8-3.1l8.6-2l1.1-0.2c6.4-1.4,12.8-2.7,19.2-4.1
	c13.6-2.9,27.7-6,41.6-8.9c90.6-19.2,193.3-40.9,293.1-61.8c3.6-0.8,7.8-0.3,10.6,1.1c22.3,11.3,44.8,23,66.6,34.4l15.9,8.3
	c0.5,0.3,0.9,0.6,1.7,1.1c0.4,0.3,1,0.7,1.7,1.2l2.9,2l-17.7,3.6c-9.7,2-19,3.9-28.3,5.8c-105.2,21.3-192.9,39-283.7,57.3
	c-1.6,0.3-3,0.5-4.3,0.5C762.3,482.6,761.2,482.4,760.3,482.1z M1337.5,427.8l5.4,3.8l-8.1-1c-2.6-0.2-5.2-0.4-7.7-0.6
	c-5.3-0.4-10.3-0.8-15.3-1.3c-46.5-4.3-91.1,1.9-128.5,8.5c-47.8,8.4-96.4,16.5-143.5,24.4c-21.7,3.6-43.4,7.3-65.1,10.9
	c-40.1,6.8-80.2,13.6-120.3,20.4c-29.2,4.9-58.3,9.9-87.5,14.8c-0.9,0.1-1.8,0.2-2.8,0.3c-0.5,0-1,0.1-1.6,0.2l-1.7,0.2V487l1.2-0.2
	c5.6-1.1,11.2-2.3,16.8-3.4c12.1-2.5,24.2-5,36.4-7.4l70.1-14.2c74.5-15.1,151.6-30.7,227.5-46c54.3-11,109.1-21.7,156.2-31
	c1.9-0.4,6.5-1,9.3,0.9c16.1,11.1,32.3,22.6,48,33.8l8,5.7 M1492.8,776.5l-0.1-1.4c-5-65.8-17.8-124.4-39.1-179.1
	c-24-61.8-56.1-112.6-98.1-155.5l-3.3-3.4l4.7,0.9c33.3,6.3,63.7,15.9,92.8,29.5c80.5,37.4,143.8,97.3,193.7,183.2
	c20.8,35.9,37.5,74.2,49.5,113.8c0.6,2.1,1.3,4.3,1.9,6.6c0.3,1.1,0.6,2.3,1,3.5l0.5,1.9H1492.8z M1784.1,774.3
	c0,0.2-0.1,0.5-0.1,0.8l-0.2,1.3h-84l-0.3-1.1c-18.6-64.4-46.9-122.8-84.2-173.7c-65.2-88.9-150.2-144.7-252.7-165.7
	c-12.3-2.5-20.8-8.6-28.1-14.7c-10.6-9-21.8-17.1-33.7-25.7c-5-3.6-10.1-7.4-15.3-11.2l-3.2-2.4l4-0.3c5.7-0.4,11.3-0.8,16.9-1.2
	c12.4-0.9,24.1-1.8,36.1-2.3c35.2-1.5,71.2,0.8,110,7.2c4.6,0.7,9.4,2.5,13.6,4.9c62.4,36,119.9,83.3,170.9,140.4
	c61.8,69.2,111.5,148.3,147.6,235.2c0.9,2.2,1.8,4.4,2.5,6.6C1784.4,773.1,1784.3,773.7,1784.1,774.3z M1456,383.2l24.6,7
	c7.1,2.2,14.2,4.3,21.2,6.4c15.3,4.5,31.1,9.2,46.3,14.7c60.1,21.6,116.3,54.4,167.3,97.7c41,34.8,78,74.8,109.8,118.9
	c30.6,42.3,57.4,89.7,79.7,140.8c0.5,1.1,0.9,2.3,1.3,3.7c0.2,0.8,0.5,1.6,0.9,2.6l0.7,2h-22.4c-6.9,0-13.6,0-20.3,0
	c-23.9,0-47,0-70.5-0.2c-3,0-6.5-3.8-7.5-6.2c-16.7-41.5-37.7-83-62.5-123.5c-27.4-44.7-59.1-86.9-94.3-125.4
	c-43.6-47.7-93-89.1-147-123"/>
</svg>
