<?xml version="1.0" encoding="utf-8"?>
<!-- Generator: Adobe Illustrator 27.5.0, SVG Export Plug-In . SVG Version: 6.00 Build 0)  -->
<svg version="1.1" id="Camada_1" xmlns="http://www.w3.org/2000/svg" xmlns:xlink="http://www.w3.org/1999/xlink" x="0px" y="0px"
	 viewBox="0 0 691.8 705.4" style="enable-background:new 0 0 691.8 705.4;" xml:space="preserve">
<style type="text/css">
	.st0{fill:#0067AC;}
</style>
<g>
	<path class="st0" d="M498.8,302.1c-2.3,0-4.7-0.7-7.5-2.3c-33.6-19.7-69.6-40.5-116.8-67.5c-5.4-3.1-7.6-6.8-7.6-12.8
		c0.2-46.1,0.2-92.1,0-136.8c0-6,2.2-9.7,7.6-12.8c41.2-23.6,79.3-45.7,116.8-67.5c5.3-3.1,9.6-3.1,14.8-0.1
		c34.7,20.3,75.7,44.1,116.8,67.4c6.5,3.7,8.9,8.1,8.8,15.7c-0.3,15.9-0.3,32.1-0.2,47.8c0,6.1,0,12.2,0,18.4c0,6,0,12,0,18.1
		c0,15.8-0.1,32.1,0.1,48.1c0.1,7-2.1,11.1-8,14.4c-41.3,23.5-82.3,47.3-116.8,67.4C504.2,301.1,501.6,302.1,498.8,302.1z
		 M498.8,4.3c-1.7,0-3.3,0.6-5.4,1.8C456,27.9,417.8,50,376.6,73.6c-4.1,2.4-5.5,4.6-5.5,9.1c0.2,44.7,0.2,90.7,0,136.8
		c0,4.5,1.4,6.8,5.4,9.1c47.2,27,83.2,47.8,116.8,67.5c4.1,2.4,6.8,2.3,11.3-0.3c34.6-20.1,75.5-43.9,116.9-67.4
		c4.4-2.5,5.9-5.2,5.8-10.6c-0.2-16.1-0.2-32.4-0.1-48.2c0-6,0-12,0-18.1c0-6.1,0-12.2,0-18.4c-0.1-15.7-0.1-31.9,0.2-47.9
		c0.1-6-1.6-9-6.6-11.9C579.7,50.1,538.7,26.2,504,5.9C502.1,4.8,500.4,4.3,498.8,4.3z"/>
	<path class="st0" d="M498.9,705.4c-2.6,0-5.2-0.8-8.1-2.5c-14.1-8.3-28.5-16.6-42.4-24.7c-17.5-10.1-35.5-20.6-53.2-31
		c-3.6-2.2-6.9-7.7-6.9-11.8c-0.2-21.2-0.3-42.7-0.3-63.5c0-15.5,0-31.5-0.1-47.3c0-6,2.2-9.7,7.6-12.8
		c36.7-20.9,67.1-38.5,95.8-55.3c5.4-3.2,10-3.1,15.7,0.3c33.3,19.5,64.2,37.3,94.3,54.4c5.7,3.2,7.9,7.2,7.8,13.6
		c-0.2,13.2-0.2,26.6-0.2,39.6c0,5.1,0,10.2,0,15.3c0,5.1,0,10.3,0,15.4c0,13.2-0.1,26.9,0.1,40.4c0.1,6.1-2.1,9.8-7.5,12.9
		c-34.4,19.6-65.2,37.4-94.3,54.4C504.3,704.5,501.6,705.4,498.9,705.4z M498.9,458.4c-1.7,0-3.4,0.6-5.4,1.7
		c-28.7,16.8-59.1,34.4-95.8,55.4c-4.1,2.3-5.5,4.6-5.4,9.1c0.1,15.8,0.1,31.8,0.1,47.3c0,20.8,0,42.3,0.3,63.5
		c0,2.7,2.5,6.8,4.8,8.2c17.6,10.5,35.7,20.9,53.1,31c13.9,8.1,28.3,16.4,42.4,24.7c4.4,2.6,7.5,2.6,12.2-0.2
		c29.1-17,59.9-34.8,94.3-54.5c4-2.3,5.4-4.7,5.4-9.1c-0.2-13.5-0.2-27.2-0.1-40.5c0-5.1,0-10.3,0-15.4l0,0c0-5.1,0-10.2,0-15.3
		c0-13-0.1-26.4,0.2-39.7c0.1-4.8-1.4-7.4-5.7-9.8c-30.1-17.1-61-34.9-94.3-54.4C502.6,459.1,500.7,458.4,498.9,458.4z"/>
	<path class="st0" d="M127.6,516.8c-2.4,0-4.9-0.8-7.6-2.4c-33.8-19.8-64.8-37.7-94.9-54.8c-6.1-3.5-8.6-7.8-8.6-15
		c0.3-33.4,0.3-68.7,0-108c0-6.6,2.2-10.5,7.7-13.7c32.4-18.5,64.9-37.2,96.4-55.7c4.9-2.9,9-2.8,14,0.1
		c30.2,17.6,62.4,36.3,94.9,54.8c5.9,3.3,8.2,7.5,8.1,14.4c-0.2,13.1-0.2,26.5-0.2,39.5c0,5.1,0,10.3,0,15.4l0,0c0,0,0,0,0,0
		c0,5,0,10.1,0,15.1c0,13-0.1,26.5,0.1,39.7c0.1,6.3-2,10.2-7.2,13.1c-33.8,19.3-65.1,37.3-95.7,55.2
		C132.3,516,130,516.8,127.6,516.8z M127.6,269.3c-1.5,0-3,0.5-4.7,1.5c-31.5,18.5-64,37.3-96.5,55.8c-4.2,2.4-5.5,4.9-5.5,9.9
		c0.3,39.3,0.3,74.7,0,108.1c0,5.6,1.6,8.5,6.4,11.2c30.1,17.1,61.2,35.1,95,54.9c4,2.4,6.7,2.4,10.5,0.1c30.6-17.9,62-36,95.8-55.3
		c3.8-2.1,5.1-4.6,5-9.3c-0.2-13.3-0.2-26.8-0.1-39.8c0-5,0-10.1,0-15.1l0,0c0-5.1,0-10.3,0-15.4c0-13-0.1-26.4,0.2-39.6
		c0.1-5.3-1.5-8-6-10.6c-32.6-18.5-64.8-37.2-95-54.8C130.7,269.9,129.1,269.3,127.6,269.3z"/>
	<path class="st0" d="M586.2,478.6c-2.5,0-5-0.8-7.8-2.5c-9.7-5.7-19.7-11.5-29.3-17c-14.6-8.4-29.7-17.1-44.3-25.9
		c-3.8-2.3-6.5-8-6.7-11.9c-0.5-10.6-0.4-21.5-0.3-31.9c0-3.9,0.1-7.8,0.1-11.7l0,0c0-4,0-7.9,0-11.9c0-9.8,0.1-19.9-0.1-29.9
		c-0.1-6.4,1.9-10.2,7.1-13.1c11.3-6.4,22.7-13,33.7-19.3c13.7-7.9,27.8-16,41.8-23.9c3.1-1.8,8.8-1.6,12.2,0.2
		c27.3,15.3,52.2,29.7,76.1,44c3.3,2,6.2,7.3,6.3,11.3c0.4,28.8,0.4,57.9,0,86.3c-0.1,4-3.1,9.2-6.4,11.2c-14.3,8.5-28.9,17-43,25.2
		c-10.5,6.1-21.5,12.4-32.1,18.7C590.8,477.9,588.6,478.6,586.2,478.6z M502,377.6c0,3.9,0,7.8-0.1,11.8
		c-0.1,10.4-0.1,21.2,0.3,31.7c0.1,2.9,2.4,7.1,4.6,8.4c14.7,8.8,29.7,17.5,44.3,25.9c9.6,5.6,19.6,11.3,29.4,17
		c4.2,2.4,6.8,2.5,10.6,0.3c10.7-6.3,21.6-12.6,32.2-18.7c14.1-8.2,28.7-16.6,43-25.1c2.1-1.3,4.3-5.1,4.3-7.6
		c0.4-28.4,0.4-57.4,0-86.2c0-2.6-2.2-6.5-4.2-7.7c-23.9-14.3-48.8-28.7-76-44c-2.1-1.2-6.1-1.3-8-0.2c-14,7.8-28.1,16-41.8,23.9
		c-11,6.4-22.5,13-33.7,19.4c-3.8,2.2-5.1,4.5-5,9.3c0.2,10,0.2,20.2,0.1,30C502.1,369.7,502,373.7,502,377.6L502,377.6z"/>
	<path class="st0" d="M236.7,301.2c-2.5,0-5-0.5-6.9-1.6c-27-15.1-51.6-29.4-75.4-43.6c-3.5-2.1-6.7-7.7-6.7-11.9
		c-0.5-28.6-0.5-57.3,0-85.4c0.1-4.1,3.3-9.6,6.9-11.8c25-15,50.4-29.7,75.4-43.6c3.5-2,9.9-1.9,13.6,0.2
		c13.6,7.6,27.2,15.5,40.5,23.1c10.7,6.2,21.8,12.6,32.8,18.8c5.9,3.3,8.2,7.5,8,14.4c-0.3,9.9-0.2,19.9-0.2,29.7c0,4,0,8.1,0,12.1
		c0,3.8,0,7.7,0.1,11.5c0.1,10.2,0.1,20.8-0.3,31.2c-0.2,4-2.8,9.8-6.5,12c-23.7,14.2-49.1,28.9-75.4,43.6
		C241.1,300.8,239,301.2,236.7,301.2z M236.5,106.2c-1.7,0-3.3,0.3-4.4,0.9c-25,13.9-50.3,28.5-75.3,43.5c-2.3,1.4-4.8,5.6-4.8,8.2
		c-0.5,28.1-0.5,56.8,0,85.3c0,2.8,2.4,7,4.7,8.3c23.7,14.2,48.3,28.4,75.3,43.5c2.3,1.3,6.7,1.4,8.7,0.3
		c26.2-14.6,51.6-29.3,75.3-43.5c2.1-1.3,4.3-5.4,4.4-8.5c0.5-10.3,0.4-20.8,0.3-31c0-3.9-0.1-7.7-0.1-11.6l0,0c0-4,0-8.1,0-12.1
		c-0.1-9.8-0.1-19.9,0.2-29.8c0.1-5.3-1.4-8-5.8-10.6c-11-6.2-22.1-12.6-32.8-18.8c-13.2-7.6-26.9-15.5-40.4-23.1
		C240.3,106.5,238.4,106.2,236.5,106.2z"/>
	<path class="st0" d="M302.1,642.9c-2.3,0-4.5-0.5-6.3-1.4c-20.4-11.2-38.1-21.5-54.3-31.4c-3.5-2.1-6.5-7.6-6.6-11.9
		c-0.5-20.6-0.5-41.1,0-61.1c0.1-4.2,3.3-9.6,6.9-11.8c16.7-10.3,34.7-20.7,53.5-31c3.6-2,9.5-2,12.8-0.2
		c18.8,10.3,36.9,20.7,53.6,30.9c3.7,2.3,6.4,8,6.7,11.9c0.5,7.6,0.4,15.2,0.3,22.7c0,2.9-0.1,5.9-0.1,8.8l0,0c0,2.9,0,5.8,0,8.7
		c0,6.8-0.1,13.9,0.1,20.8c0.2,6.2-2,10.2-7.3,13.1c-7.8,4.4-15.7,8.9-23.4,13.4c-9.9,5.7-20.1,11.6-30.3,17.2
		C306.3,642.4,304.2,642.9,302.1,642.9z M302.2,496.9c-1.7,0-3.5,0.3-4.7,1c-18.8,10.3-36.7,20.7-53.4,30.9
		c-2.4,1.5-4.8,5.6-4.9,8.3c-0.5,19.9-0.5,40.4,0,60.9c0.1,2.9,2.4,7,4.6,8.4c16.1,9.9,33.8,20.1,54.1,31.3c2,1.1,6,1.2,7.9,0.1
		c10.2-5.6,20.4-11.5,30.2-17.2c7.6-4.4,15.6-9,23.4-13.4c3.9-2.2,5.3-4.7,5.1-9.3c-0.2-7-0.2-14.1-0.1-21c0-2.9,0-5.8,0-8.7
		c0-3,0-5.9,0.1-8.9c0.1-7.3,0.2-14.9-0.3-22.3c-0.2-3.1-2.4-7.2-4.6-8.6c-16.7-10.2-34.6-20.6-53.4-30.8
		C305.2,497.2,303.7,496.9,302.2,496.9z"/>
</g>
</svg>
